<?xml version="1.0" encoding="utf-8"?>
<!-- Generator: Adobe Illustrator 26.4.1, SVG Export Plug-In . SVG Version: 6.00 Build 0)  -->
<svg version="1.1" id="Layer_1" xmlns="http://www.w3.org/2000/svg" xmlns:xlink="http://www.w3.org/1999/xlink" x="0px" y="0px"
	 viewBox="0 0 20 20" style="enable-background:new 0 0 20 20;" xml:space="preserve">
<style type="text/css">
	.st0{fill:none;stroke:#FFFFFF;stroke-linecap:round;stroke-linejoin:round;}
</style>
<g>
	<path class="st0" d="M9.98,16.27c-0.25,0-0.49-0.06-0.68-0.16L4.68,13.6c-0.18-0.1-0.27-0.22-0.27-0.35V6.5"/>
	<line class="st0" x1="9.98" y1="9.5" x2="9.98" y2="16.27"/>
	<path class="st0" d="M10.03,3.73c0.25,0,0.5,0.04,0.69,0.14l4.57,2.26c0.39,0.19,0.4,0.51,0.03,0.71l-4.63,2.51
		c-0.19,0.1-0.43,0.15-0.68,0.16H9.99c-0.25,0-0.5-0.06-0.68-0.16L4.68,6.83C4.3,6.63,4.32,6.31,4.7,6.12l4.58-2.26
		c0.19-0.1,0.44-0.14,0.69-0.14"/>
	<path class="st0" d="M10.02,16.27c0.25,0,0.49-0.06,0.68-0.16l4.63-2.51c0.18-0.1,0.27-0.22,0.27-0.35V6.5"/>
	<line class="st0" x1="10.02" y1="9.5" x2="10.02" y2="16.27"/>
</g>
</svg>
