<?xml version="1.0" encoding="utf-8"?>
<!-- Generator: Adobe Illustrator 26.4.1, SVG Export Plug-In . SVG Version: 6.00 Build 0)  -->
<svg version="1.1" id="Layer_1" xmlns="http://www.w3.org/2000/svg" xmlns:xlink="http://www.w3.org/1999/xlink" x="0px" y="0px"
	 viewBox="0 0 20 20" style="enable-background:new 0 0 20 20;" xml:space="preserve">
<style type="text/css">
	.st0{fill:none;stroke:#000000;stroke-linecap:round;stroke-linejoin:round;}
</style>
<path class="st0" d="M8.44,7.49v5.62c0.01,0.41,0.17,0.8,0.47,1.09c0.29,0.29,0.69,0.45,1.1,0.45c0.41,0,0.81-0.16,1.1-0.45
	c0.29-0.29,0.46-0.68,0.47-1.09l0.01-7.37c0-0.35-0.06-0.7-0.19-1.03c-0.13-0.33-0.33-0.62-0.57-0.87C10.56,3.6,10.27,3.4,9.95,3.26
	C9.62,3.13,9.27,3.06,8.92,3.06c-0.35,0-0.7,0.07-1.02,0.21C7.58,3.4,7.28,3.6,7.04,3.85C6.79,4.1,6.59,4.39,6.46,4.72
	c-0.13,0.33-0.2,0.67-0.19,1.03v7.41c-0.01,0.49,0.08,0.99,0.27,1.44c0.18,0.46,0.46,0.88,0.81,1.23c0.35,0.35,0.76,0.63,1.22,0.82
	c0.46,0.19,0.95,0.29,1.44,0.29c0.49,0,0.98-0.1,1.44-0.29c0.46-0.19,0.87-0.47,1.22-0.82c0.35-0.35,0.62-0.77,0.81-1.23
	c0.18-0.46,0.28-0.95,0.27-1.44V6.23"/>
</svg>
