<?xml version="1.0" encoding="utf-8"?>
<!-- Generator: Adobe Illustrator 26.4.1, SVG Export Plug-In . SVG Version: 6.00 Build 0)  -->
<svg version="1.1" id="Layer_1" xmlns="http://www.w3.org/2000/svg" xmlns:xlink="http://www.w3.org/1999/xlink" x="0px" y="0px"
	 viewBox="0 0 20 20" style="enable-background:new 0 0 20 20;" xml:space="preserve">
<style type="text/css">
	.st0{fill:none;stroke:#FFFDFE;stroke-width:0.75;stroke-linecap:round;stroke-linejoin:round;}
</style>
<g>
	<g>
		<g>
			<g>
				<path class="st0" d="M14.24,15.85l-2.06-0.93c-0.17-0.08-0.33-0.19-0.45-0.33c-0.22-0.26-0.35-0.59-0.35-0.95v-0.9"/>
				<path class="st0" d="M8.6,12.74v0.91c0,0.35-0.12,0.67-0.34,0.93c-0.13,0.15-0.29,0.27-0.47,0.35l-2.14,0.92"/>
			</g>
			<path class="st0" d="M12.81,11.16c0.88-0.79,1.43-1.93,1.43-3.21c0-2.37-1.93-4.3-4.3-4.3s-4.3,1.93-4.3,4.3
				c0,1.34,0.61,2.54,1.58,3.33"/>
			<line class="st0" x1="12.5" y1="6.06" x2="12" y2="7.24"/>
			<path class="st0" d="M12,7.24c-0.12,0.1-0.39,0.36-0.85-0.2c-0.45-0.55-1.07-0.74-1.43-0.38C9.63,6.76,9.43,7.1,9.71,7.84
				c0.1,0.25,0.2,0.62-0.02,0.8C9.43,8.86,9.14,8.6,8.96,8.41c-0.18-0.2-0.54-0.35-0.79-0.17c-0.41,0.29-0.18,0.75-0.47,1
				c-0.23,0.2-0.57,0.13-0.8,0l0.34,2.2c0.04,0.32,0.23,0.59,0.5,0.76l1.73,1.06c0.32,0.2,0.72,0.2,1.04,0l1.73-1.06
				c0.27-0.16,0.45-0.44,0.5-0.76l0.25-2.2C13.16,7.72,12,7.24,12,7.24"/>
		</g>
		<path class="st0" d="M5.56,7.93c-0.9,0-1.63-0.73-1.63-1.63s0.73-1.63,1.63-1.63C6,4.67,6.4,4.85,6.7,5.13"/>
		<path class="st0" d="M13.24,5.19c0.3-0.32,0.72-0.52,1.2-0.52c0.9,0,1.63,0.73,1.63,1.63s-0.73,1.63-1.63,1.63
			c-0.07,0-0.13,0-0.19-0.01"/>
	</g>
	<line class="st0" x1="6.9" y1="15.31" x2="6.9" y2="16.35"/>
	<g>
		<line class="st0" x1="13.16" y1="15.38" x2="13.16" y2="16.35"/>
		<polyline class="st0" points="12.27,15.02 12.27,16.35 7.79,16.35 7.79,14.93 		"/>
	</g>
</g>
</svg>
